<svg xmlns="http://www.w3.org/2000/svg" viewBox="0 0 50.14 56.2">
  <defs>
    <style>.cls-1{fill:#00574a;}.cls-2{fill:#00e507;}</style>
  </defs>
  <g id="Layer_2" data-name="Layer 2">
    <g id="Layer_1-2" data-name="Layer 1">
      <path class="cls-1" d="M44.23,42.36H42.1a.59.59,0,1,1,0-1.18h2.13a2.59,2.59,0,0,0,2.6-2.6,2.58,2.58,0,0,0-.76-1.84A2.61,2.61,0,0,0,44.23,36a.6.6,0,1,1,0-1.19h2.13c1.31,0,2.6-2.1,2.6-3.66a2.61,2.61,0,0,0-2.6-2.6h-17a.6.6,0,0,1-.5-.27.58.58,0,0,1,0-.56c0-.07,3.1-7.3,2.11-10.85-.88-3.11-2.48-4-3.58-3.88a2.06,2.06,0,0,0-1.65,2.19c0,8.67-8.73,18.69-14.42,18.69a.6.6,0,1,1,0-1.19c4.63,0,13.24-9,13.24-17.5a3.21,3.21,0,0,1,2.67-3.36c1.65-.23,3.8.89,4.88,4.73.9,3.22-1,8.73-1.82,10.81H46.36A3.76,3.76,0,0,1,49,28.45a3.8,3.8,0,0,1,1.11,2.68c0,1.78-1.32,4.35-3.22,4.78A3.8,3.8,0,0,1,48,38.58a3.72,3.72,0,0,1-1.11,2.67A3.78,3.78,0,0,1,44.23,42.36Z"/>
      <path class="cls-1" d="M40,54.07H26.13a35.56,35.56,0,0,1-8.53-1c-1.7-.35-3.62-.75-6.45-1.15a.6.6,0,0,1,.17-1.18c2.86.41,4.8.81,6.52,1.17a35,35,0,0,0,8.29,1H40c2.16,0,2.6-.58,2.6-1.53a2.62,2.62,0,0,0-.76-1.84A2.66,2.66,0,0,0,40,48.75a.6.6,0,0,1,0-1.19H42.1a2.57,2.57,0,0,0,1-.19,2.88,2.88,0,0,0,.85-.57A2.53,2.53,0,0,0,44.5,46a2.66,2.66,0,0,0,.2-1,2.61,2.61,0,0,0-.2-1,2.53,2.53,0,0,0-1.41-1.41,2.57,2.57,0,0,0-1-.2.59.59,0,1,1,0-1.18,3.79,3.79,0,0,1,1.45.29,3.82,3.82,0,0,1,2,2A3.65,3.65,0,0,1,45.88,45a3.8,3.8,0,0,1-2.33,3.5,3.31,3.31,0,0,1-.87.24,3.78,3.78,0,0,1,1.07,2.65C43.75,54.07,40.91,54.07,40,54.07Z"/>
      <path class="cls-1" d="M11.24,56.2H.59A.6.6,0,0,1,0,55.61V30.06a.6.6,0,0,1,.59-.59H11.24a.6.6,0,0,1,.59.59V55.61A.6.6,0,0,1,11.24,56.2ZM1.19,55h9.45V30.66H1.19Z"/>
      <path class="cls-2" d="M27.53,6.92a.58.58,0,0,1-.59-.59V.59a.59.59,0,0,1,1.18,0V6.33A.58.58,0,0,1,27.53,6.92Z"/>
      <path class="cls-2" d="M33.48,9.31a.57.57,0,0,1-.41-.16.59.59,0,0,1,0-.84L36.57,4.7a.59.59,0,1,1,.85.83l-3.51,3.6A.6.6,0,0,1,33.48,9.31Z"/>
      <path class="cls-2" d="M36.08,15.35a.6.6,0,0,1-.6-.59.61.61,0,0,1,.59-.6l5-.06a.55.55,0,0,1,.6.58.59.59,0,0,1-.58.6l-5,.07Z"/>
      <path class="cls-2" d="M14,15.35a.6.6,0,0,1-.6-.59.61.61,0,0,1,.59-.6l5-.06h0a.59.59,0,0,1,0,1.18l-5,.07Z"/>
      <path class="cls-2" d="M21.59,9.31a.6.6,0,0,1-.43-.18l-3.51-3.6a.59.59,0,1,1,.85-.83L22,8.31a.6.6,0,0,1,0,.84A.59.59,0,0,1,21.59,9.31Z"/>
    </g>
  </g>
</svg>