<svg xmlns="http://www.w3.org/2000/svg" viewBox="0 0 54.52 54.52">
  <defs>
    <style>.cls-1{fill:#01554a;}.cls-2{fill:#00e043;}</style>
  </defs>
  <g id="Layer_2" data-name="Layer 2">
    <g id="Layer_1-2" data-name="Layer 1">
      <path class="cls-1" d="M1.81,54.52a1.81,1.81,0,0,1-1.63-2.6l15-31.15a.8.8,0,0,1,1.06-.38.8.8,0,0,1,.38,1.07L1.62,52.62a.2.2,0,0,0,0,.24.2.2,0,0,0,.24,0l31.36-15a.78.78,0,0,1,1.06.37A.79.79,0,0,1,34,39.32L2.6,54.34A1.89,1.89,0,0,1,1.81,54.52Z"/>
      <path class="cls-1" d="M33.61,39.4a.75.75,0,0,1-.26,0L22.48,35.5a5.56,5.56,0,0,1-3.36-3.31l-4-10.8a.79.79,0,0,1,.18-.84.78.78,0,0,1,.83-.19l10.72,3.8a5.86,5.86,0,0,1,3.56,3.51l4,10.65a.79.79,0,0,1-.18.84A.78.78,0,0,1,33.61,39.4Zm-16.42-17,3.43,9.2A4,4,0,0,0,23,34l9.24,3.28-3.36-9a4.34,4.34,0,0,0-2.61-2.57Z"/>
      <path class="cls-2" d="M27.87,19.23a.82.82,0,0,1-.67-.36l-2.35-3.52a.8.8,0,0,1,0-.89l2-3.08-2-3.09a.78.78,0,0,1,0-.88l2-3.08-2-3.09A.8.8,0,1,1,26.18.36l2.35,3.52a.8.8,0,0,1,0,.89L26.48,7.85l2.05,3.08a.8.8,0,0,1,0,.89L26.48,14.9,28.53,18a.79.79,0,0,1-.22,1.11A.82.82,0,0,1,27.87,19.23Z"/>
      <path class="cls-2" d="M34.92,28.63a.8.8,0,0,1-.36-1.52l4.7-2.35a.79.79,0,0,1,.8,0l3.08,2.06,3.09-2.06a.78.78,0,0,1,.88,0l3.08,2.06,3.09-2.06a.81.81,0,0,1,1.11.23.79.79,0,0,1-.23,1.1L50.64,28.5a.84.84,0,0,1-.89,0l-3.08-2.06L43.59,28.5a.84.84,0,0,1-.89,0l-3.14-2.1-4.29,2.14A.73.73,0,0,1,34.92,28.63Z"/>
      <path class="cls-2" d="M41.32,20.75a.81.81,0,0,1-.66-1.25L43,16a.81.81,0,0,1,.82-.34l3.64.72,2.06-3.08a.8.8,0,1,1,1.33.89L48.5,17.69a.78.78,0,0,1-.82.34l-3.63-.72L42,20.39A.82.82,0,0,1,41.32,20.75Z"/>
      <path class="cls-2" d="M33.09,13.77l-.22,0a.8.8,0,0,1-.55-1l1.16-4.08a.82.82,0,0,1,.68-.58l3.68-.43,1-3.56a.8.8,0,0,1,1.54.43L39.23,8.62a.82.82,0,0,1-.68.58l-3.67.43-1,3.56A.8.8,0,0,1,33.09,13.77Z"/>
      <path class="cls-1" d="M17.3,13.35a.83.83,0,0,1-.57-.23.8.8,0,0,1,0-1.13l.62-.62-.62-.62a.81.81,0,0,1,1.14-1.14l1.18,1.19a.79.79,0,0,1,0,1.13l-1.19,1.19A.8.8,0,0,1,17.3,13.35Z"/>
      <path class="cls-1" d="M17.3,13.35a.83.83,0,0,1-.57-.23l-1.18-1.19a.79.79,0,0,1,0-1.13l1.18-1.19a.81.81,0,0,1,1.14,1.14l-.63.62.62.62a.79.79,0,0,1,0,1.13A.85.85,0,0,1,17.3,13.35Z"/>
      <path class="cls-1" d="M34.93,21.58a.81.81,0,0,1-.57-1.37l.62-.62L34.36,19a.8.8,0,1,1,1.13-1.13L36.68,19a.79.79,0,0,1,.23.56.81.81,0,0,1-.23.57l-1.19,1.18A.77.77,0,0,1,34.93,21.58Z"/>
      <path class="cls-1" d="M34.93,21.58a.8.8,0,0,1-.57-.24l-1.18-1.18a.82.82,0,0,1-.24-.57.8.8,0,0,1,.24-.56l1.18-1.19a.8.8,0,0,1,1.13,0,.79.79,0,0,1,0,1.13l-.62.62.62.62a.79.79,0,0,1,0,1.13A.77.77,0,0,1,34.93,21.58Z"/>
      <path class="cls-1" d="M45.51,11a.83.83,0,0,1-.57-.23.81.81,0,0,1,0-1.14L45.56,9l-.62-.62a.8.8,0,1,1,1.13-1.13l1.19,1.19a.81.81,0,0,1,0,1.13l-1.19,1.19A.82.82,0,0,1,45.51,11Z"/>
      <path class="cls-1" d="M45.51,11a.83.83,0,0,1-.57-.23L43.75,9.56a.81.81,0,0,1,0-1.13l1.19-1.19a.8.8,0,0,1,1.13,1.13L45.45,9l.62.62a.81.81,0,0,1,0,1.14A.8.8,0,0,1,45.51,11Z"/>
      <path class="cls-1" d="M44.3,35.7a.8.8,0,0,1-.56-1.36l.62-.62-.62-.62a.8.8,0,0,1,0-1.13.79.79,0,0,1,1.13,0l1.19,1.18a.81.81,0,0,1,.23.57.79.79,0,0,1-.23.56l-1.19,1.19A.83.83,0,0,1,44.3,35.7Z"/>
      <path class="cls-1" d="M44.3,35.7a.82.82,0,0,1-.56-.23l-1.19-1.19a.79.79,0,0,1-.23-.56.81.81,0,0,1,.23-.57L43.74,32a.79.79,0,0,1,1.13,0,.8.8,0,0,1,0,1.13l-.62.62.62.62a.8.8,0,0,1,0,1.13A.83.83,0,0,1,44.3,35.7Z"/>
    </g>
  </g>
</svg>