<svg xmlns="http://www.w3.org/2000/svg" viewBox="0 0 56.52 56.81">
  <defs>
    <style>.cls-1{fill:#01554a;}.cls-2{fill:#00e043;}</style>
  </defs>
  <g id="Layer_2" data-name="Layer 2">
    <g id="Layer_1-2" data-name="Layer 1">
      <path class="cls-1" d="M11.13,54.74a5.09,5.09,0,0,1-5-4.3L.06,12.28A5.1,5.1,0,0,1,1,8.48a5,5,0,0,1,3.33-2L44.59.06A5.09,5.09,0,0,1,50.41,4.3l6.05,38.16a5.1,5.1,0,0,1-4.23,5.83L11.94,54.68A5.52,5.52,0,0,1,11.13,54.74ZM45.38,1.6a4.9,4.9,0,0,0-.54,0L4.55,8a3.5,3.5,0,0,0-2.91,4h0L7.69,50.19a3.51,3.51,0,0,0,4,2.91L52,46.71a3.5,3.5,0,0,0,2.9-4L48.83,4.55A3.5,3.5,0,0,0,45.38,1.6Z"/>
      <path class="cls-1" d="M12.15,56.81a.8.8,0,0,1-.79-.68L11,54a.8.8,0,0,1,1.58-.25l.34,2.12a.8.8,0,0,1-.67.92Z"/>
      <path class="cls-1" d="M52.44,50.42a.8.8,0,0,1-.79-.67l-.34-2.12a.8.8,0,1,1,1.58-.25l.34,2.12a.8.8,0,0,1-.67.91Z"/>
      <path class="cls-1" d="M16.49,47.37a5.1,5.1,0,0,1-5-4.3L11.13,41a.8.8,0,0,1,1.58-.25L13,42.82a3.5,3.5,0,0,0,4,2.91l27.57-4.37a3.5,3.5,0,0,0,2.9-4l-4-25.44a3.51,3.51,0,0,0-4-2.91L11.92,13.38a3.5,3.5,0,0,0-2.91,4l.34,2.12a.8.8,0,0,1-1.58.25l-.34-2.12a5.1,5.1,0,0,1,4.24-5.83L39.23,7.43a5.1,5.1,0,0,1,5.83,4.24l4,25.44a5.1,5.1,0,0,1-4.23,5.83L17.29,47.31A5.39,5.39,0,0,1,16.49,47.37Z"/>
      <path class="cls-1" d="M16.49,47.37a5.1,5.1,0,0,1-5-4.3L11.13,41a.8.8,0,0,1,1.58-.25L13,42.82a3.5,3.5,0,0,0,4,2.91l27.57-4.37a3.5,3.5,0,0,0,2.9-4l-4-25.44a3.51,3.51,0,0,0-4-2.91L11.92,13.38a3.5,3.5,0,0,0-2.91,4l.34,2.12a.8.8,0,0,1-1.58.25l-.34-2.12a5.1,5.1,0,0,1,4.24-5.83L39.23,7.43a5.1,5.1,0,0,1,5.83,4.24l4,25.44a5.1,5.1,0,0,1-4.23,5.83L17.29,47.31A5.39,5.39,0,0,1,16.49,47.37Z"/>
      <path class="cls-1" d="M10.91,35.27a.8.8,0,0,1-.79-.68L8.78,26.11a.8.8,0,0,1,1.58-.25l1.34,8.48a.8.8,0,0,1-.66.92Z"/>
      <path class="cls-1" d="M7.44,27.12a.79.79,0,0,1-.78-.67l-1-6.36a.8.8,0,0,1,.66-.92l4.24-.67a.8.8,0,0,1,.92.66l1,6.36a.8.8,0,0,1-.15.6.78.78,0,0,1-.52.32l-4.24.67Zm-.09-6.49.76,4.78L10.77,25,10,20.2Z"/>
      <path class="cls-1" d="M9.8,42a.8.8,0,0,1-.47-.15A.78.78,0,0,1,9,41.29L8,34.93A.8.8,0,0,1,8.67,34l4.24-.67a.78.78,0,0,1,.59.14.82.82,0,0,1,.32.53l1,6.36a.8.8,0,0,1-.67.91L9.92,42Zm-.09-6.49.75,4.78,2.66-.42-.75-4.78Z"/>
      <path class="cls-2" d="M29.3,37.67A10.52,10.52,0,1,1,31,37.53h0A10.33,10.33,0,0,1,29.3,37.67Zm1.53-.93h0Zm-1.5-18.4a9.54,9.54,0,0,0-1.4.11A8.86,8.86,0,0,0,30.71,36h0a8.85,8.85,0,0,0,7.36-10.13A8.87,8.87,0,0,0,29.33,18.34Z"/>
      <path class="cls-2" d="M29.31,33.37a6.22,6.22,0,1,1,1-.08A6.58,6.58,0,0,1,29.31,33.37Zm0-10.74a4.37,4.37,0,0,0-.72.06,4.58,4.58,0,0,0-3.8,5.23,4.56,4.56,0,1,0,4.52-5.29Z"/>
      <path class="cls-2" d="M28.48,22.7a.8.8,0,0,1-.79-.67L27,17.79a.8.8,0,1,1,1.58-.25l.67,4.24a.8.8,0,0,1-.66.91Z"/>
      <path class="cls-2" d="M25,24.85a.82.82,0,0,1-.47-.15L21,22.17A.8.8,0,1,1,22,20.88l3.47,2.52a.8.8,0,0,1,.18,1.12A.79.79,0,0,1,25,24.85Z"/>
      <path class="cls-2" d="M19.78,29.51a.8.8,0,0,1-.12-1.59l4.24-.67a.8.8,0,0,1,.25,1.58l-4.24.67Z"/>
      <path class="cls-2" d="M23.64,35.82a.84.84,0,0,1-.47-.15A.81.81,0,0,1,23,34.55l2.52-3.47a.8.8,0,0,1,1.12-.18A.79.79,0,0,1,26.81,32l-2.52,3.48A.82.82,0,0,1,23.64,35.82Z"/>
      <path class="cls-2" d="M30.83,37.54a.81.81,0,0,1-.79-.67l-.67-4.24A.8.8,0,1,1,31,32.38l.67,4.24a.79.79,0,0,1-.66.91Z"/>
      <path class="cls-2" d="M37.14,33.68a.82.82,0,0,1-.47-.15L33.19,31A.81.81,0,0,1,33,29.89a.8.8,0,0,1,1.12-.18l3.47,2.53a.8.8,0,0,1-.47,1.44Z"/>
      <path class="cls-2" d="M34.62,27.16a.81.81,0,0,1-.79-.67.8.8,0,0,1,.67-.92l4.24-.67a.8.8,0,0,1,.91.67.79.79,0,0,1-.66.91l-4.24.67Z"/>
      <path class="cls-2" d="M32.48,23.66a.8.8,0,0,1-.65-1.27l2.52-3.47a.8.8,0,1,1,1.3.94l-2.53,3.47A.77.77,0,0,1,32.48,23.66Z"/>
    </g>
  </g>
</svg>